<?xml version="1.0" standalone="no"?>
<!DOCTYPE svg PUBLIC "-//W3C//DTD SVG 20010904//EN"
 "http://www.w3.org/TR/2001/REC-SVG-20010904/DTD/svg10.dtd">
<svg version="1.0" xmlns="http://www.w3.org/2000/svg"
 width="200.000000pt" height="200.000000pt" viewBox="0 0 200.000000 200.000000"
 preserveAspectRatio="xMidYMid meet">

<g transform="translate(0.000000,200.000000) scale(0.100000,-0.100000)"
fill="#000000" stroke="none">
<path d="M1120 1555 l0 -145 68 0 67 0 -2 142 -2 143 -66 3 -65 3 0 -146z"/>
<path d="M1120 1165 l0 -125 68 0 67 0 0 125 0 125 -67 0 -68 0 0 -125z"/>
<path d="M530 815 c0 -113 2 -135 15 -135 11 0 15 13 15 54 l0 53 52 5 c61 6
88 32 88 83 0 50 -37 75 -111 75 l-59 0 0 -135z m124 99 c9 -8 16 -28 16 -44
0 -40 -24 -60 -71 -60 l-39 0 0 60 0 60 39 0 c23 0 46 -7 55 -16z"/>
<path d="M780 815 c0 -79 4 -135 10 -135 5 0 10 26 12 57 3 55 4 58 30 60 23
1 32 -6 59 -53 28 -50 53 -74 64 -63 2 3 -11 28 -29 57 l-33 54 29 28 c35 35
36 73 3 105 -20 21 -34 25 -85 25 l-60 0 0 -135z m131 94 c13 -20 11 -63 -3
-77 -7 -7 -34 -12 -60 -12 l-48 0 0 56 0 57 51 -5 c28 -3 55 -12 60 -19z"/>
<path d="M1054 936 c-16 -12 -20 -29 -22 -110 -5 -130 5 -146 88 -146 33 0 60
4 60 10 0 6 -20 10 -44 10 -69 0 -76 5 -76 61 l0 49 60 0 c33 0 60 4 60 10 0
6 -27 10 -60 10 l-60 0 0 38 c0 50 14 62 72 62 26 0 48 5 48 10 0 15 -104 12
-126 -4z"/>
<path d="M1260 815 c0 -113 2 -135 15 -135 12 0 15 19 15 110 0 61 3 110 8
110 4 0 18 -25 31 -55 19 -44 28 -55 46 -55 18 0 28 11 46 55 12 30 26 55 31
55 4 0 8 -49 8 -110 0 -67 4 -110 10 -110 6 0 10 52 10 135 0 123 -2 135 -18
135 -12 0 -29 -23 -54 -72 l-36 -73 -33 72 c-27 58 -38 72 -56 73 -23 0 -23
-2 -23 -135z"/>
</g>
</svg>
