<?xml version="1.0" encoding="UTF-8"?>
<svg version="1.1" xmlns="http://www.w3.org/2000/svg" width="1280" height="717">
<path d="M0 0 C422.4 0 844.8 0 1280 0 C1280 127.05 1280 254.1 1280 385 C857.6 385 435.2 385 0 385 C0 257.95 0 130.9 0 0 Z " fill="#000000" transform="translate(0,0)"/>
<path d="M0 0 C0.97066406 0.52207031 1.94132813 1.04414062 2.94140625 1.58203125 C15.45045594 8.8952879 24.21632446 19.34978919 31 32 C31.48082031 32.845625 31.96164062 33.69125 32.45703125 34.5625 C40.54787376 50.20642509 41.15132829 69.86296502 41.16796875 87.09375 C41.17129715 88.32049438 41.17462555 89.54723877 41.17805481 90.81115723 C41.18309177 93.39623646 41.18546414 95.98132212 41.18530273 98.56640625 C41.18747824 102.46105054 41.205639 106.35540606 41.22460938 110.25 C41.29525389 140.85643061 39.78919056 172.10910225 17.49853516 195.51757812 C10.09925309 202.83729802 1.4081936 207.74358445 -8 212 C-9.155 212.556875 -10.31 213.11375 -11.5 213.6875 C-38.62433946 223.8591273 -74.73171043 223.1725006 -101.36328125 211.74609375 C-120.47698845 202.87132513 -134.52900413 188.38313478 -141.93969727 168.56640625 C-147.77674777 152.15989101 -149.13975228 135.99852753 -149.203125 118.66015625 C-149.20882507 117.41737411 -149.21452515 116.17459198 -149.22039795 114.89414978 C-149.2297891 112.27636551 -149.23635831 109.65856973 -149.24023438 107.04077148 C-149.24989706 103.10443643 -149.28096102 99.16863394 -149.3125 95.23242188 C-149.43486234 66.20507622 -147.12776576 37.70824854 -127 15 C-126.48050781 14.38640625 -125.96101563 13.7728125 -125.42578125 13.140625 C-95.94873108 -19.23215554 -36.19123007 -19.83847451 0 0 Z " fill="#FDFDFD" transform="translate(486,84)"/>
<path d="M0 0 C0.80752213 -0.00287018 1.61504425 -0.00574036 2.44703674 -0.00869751 C4.1542328 -0.01073814 5.86145224 -0.00520828 7.56860352 0.00732422 C10.17843118 0.02335779 12.78670536 0.0074871 15.39648438 -0.01171875 C17.055993 -0.00973591 18.71550065 -0.00589138 20.375 0 C21.54391029 -0.00910904 21.54391029 -0.00910904 22.73643494 -0.0184021 C25.92179524 0.02281714 28.34473817 0.18836606 31.20239258 1.65551758 C33.03386764 3.712937 33.47082594 4.98299082 33.95703125 7.68359375 C34.1281543 8.58335938 34.29927734 9.483125 34.47558594 10.41015625 C34.73710449 11.92029297 34.73710449 11.92029297 35.00390625 13.4609375 C35.30796387 15.09289062 35.30796387 15.09289062 35.61816406 16.7578125 C36.08106892 19.24380811 36.53730704 21.73105072 36.98828125 24.21923828 C37.80541766 28.71094838 38.66851875 33.19339874 39.53515625 37.67578125 C46.58230356 74.19130473 53.2949398 110.77435204 59.75390625 147.3984375 C61.54562084 143.92984985 62.73364102 140.51356941 63.87890625 136.7734375 C64.08990967 136.08813965 64.30091309 135.4028418 64.51831055 134.69677734 C64.99759495 133.13880738 65.47527259 131.58034256 65.95166016 130.02148438 C66.82317817 127.17194404 67.70022722 124.32414365 68.578125 121.4765625 C71.34028328 112.51333131 74.09876915 103.54902345 76.8359375 94.578125 C79.84551187 84.7262032 82.86315201 74.87693967 86.06640625 65.0859375 C86.41179443 64.01085937 86.41179443 64.01085937 86.76416016 62.9140625 C88.53047333 57.59568448 90.01404225 53.55834684 94.75390625 50.3984375 C99.19646895 49.9016084 103.66158717 49.98183452 108.12890625 49.9609375 C109.36125 49.92806641 110.59359375 49.89519531 111.86328125 49.86132812 C120.89401422 49.80745716 120.89401422 49.80745716 124.9765625 52.61328125 C128.84462275 58.67465918 130.51802354 65.59026109 132.61108398 72.4230957 C134.71842868 79.2878948 136.84544362 86.14645592 138.9765625 93.00390625 C139.56763309 94.90701857 140.1587031 96.81013108 140.74973965 98.71325397 C142.18508721 103.33491046 143.62076071 107.9564656 145.05688477 112.57788086 C145.86984827 115.19403495 146.6825517 117.81026958 147.49497986 120.42658997 C148.2536714 122.86981695 149.01273347 125.31292892 149.77223206 127.75590515 C151.80169186 134.29303241 153.80272336 140.8375015 155.75390625 147.3984375 C156.08390625 147.3984375 156.41390625 147.3984375 156.75390625 147.3984375 C156.86950897 146.7416098 156.98511169 146.0847821 157.10421753 145.40805054 C158.60883959 136.86254178 160.11745011 128.3177399 161.62890625 119.7734375 C161.75158497 119.07988537 161.87426369 118.38633324 162.00065994 117.67176437 C166.02630392 94.92057729 170.15353211 72.19045834 174.40380859 49.47998047 C174.59704712 48.4454071 174.79028564 47.41083374 174.98937988 46.34490967 C175.36648003 44.3265203 175.74462523 42.30832585 176.12390137 40.29034424 C177.0755784 35.19201421 177.9807083 30.0901494 178.82080078 24.97216797 C179.08123924 23.40329079 179.08123924 23.40329079 179.34693909 21.80271912 C179.67330976 19.82076062 179.99167933 17.83746076 180.30039978 15.85267639 C181.11809033 10.90078719 182.02359378 6.71296862 184.75390625 2.3984375 C188.48991561 -0.09223541 191.45188358 0.07518809 195.78125 0.0625 C196.56657608 0.0558432 197.35190216 0.0491864 198.161026 0.04232788 C199.82111266 0.03220835 201.48123995 0.02751065 203.14135742 0.02783203 C205.67890529 0.02345904 208.21471305 -0.01286422 210.75195312 -0.05078125 C212.36587947 -0.05664967 213.97981408 -0.0606189 215.59375 -0.0625 C216.35114975 -0.07687103 217.1085495 -0.09124207 217.88890076 -0.10604858 C221.35861697 -0.0760103 223.39863072 0.14768321 226.26586914 2.17138672 C227.96485179 4.71414632 228.17061685 5.5174072 227.72265625 8.4921875 C227.59375 9.37777344 227.46484375 10.26335937 227.33203125 11.17578125 C227.14125 12.23925781 226.95046875 13.30273438 226.75390625 14.3984375 C226.64304687 15.02314941 226.5321875 15.64786133 226.41796875 16.29150391 C225.5828348 20.95026309 224.6856635 25.59600683 223.7746582 30.240448 C222.86043179 34.90678518 221.96296576 39.57633464 221.06640625 44.24609375 C220.78259094 45.72366905 220.78259094 45.72366905 220.49304199 47.23109436 C218.32191058 58.58290052 216.28651137 69.95866539 214.25390625 81.3359375 C211.46807058 96.90747145 208.65453907 112.47284278 205.75390625 128.0234375 C205.59361938 128.88277893 205.43333252 129.74212036 205.26818848 130.62750244 C204.10013995 136.88511484 202.92770227 143.14190096 201.75390625 149.3984375 C201.47196411 150.90129303 201.47196411 150.90129303 201.18432617 152.43450928 C200.58779902 155.61390496 199.99116928 158.79328138 199.39453125 161.97265625 C199.19500854 163.03609253 198.99548584 164.09952881 198.78991699 165.19519043 C197.82722951 170.32581725 196.86381263 175.45630395 195.8984375 180.58642578 C195.72131226 181.52989868 195.54418701 182.47337158 195.36169434 183.44543457 C195.01133878 185.30831841 194.65923444 187.17087427 194.30529785 189.03308105 C193.39355624 193.85697651 192.53265865 198.6837795 191.74023438 203.52880859 C191.48774933 205.0305085 191.48774933 205.0305085 191.23016357 206.56254578 C190.91115775 208.47013847 190.60413705 210.37978923 190.31134033 212.2915802 C189.4546995 217.34666762 188.56723541 220.69351558 184.75390625 224.3984375 C180.27868239 226.63604943 174.23490839 225.70833329 169.26074219 225.74853516 C167.76318788 225.76505945 166.2657113 225.79230356 164.76855469 225.83056641 C162.60180039 225.88562092 160.43689281 225.9072514 158.26953125 225.921875 C156.97305664 225.94169434 155.67658203 225.96151367 154.34082031 225.98193359 C149.5659999 225.20519654 148.08901788 223.87202811 144.75390625 220.3984375 C143.43701172 218.01538086 143.43701172 218.01538086 142.62109375 215.48828125 C142.2967334 214.51850342 141.97237305 213.54872559 141.63818359 212.54956055 C141.30512207 211.48906494 140.97206055 210.42856934 140.62890625 209.3359375 C140.25330566 208.19745361 139.87770508 207.05896973 139.49072266 205.88598633 C138.66685551 203.3851875 137.8500841 200.88310862 137.04296875 198.37695312 C135.73593372 194.32744284 134.38944308 190.29172853 133.03515625 186.2578125 C131.04906349 180.33604627 129.07020877 174.41196596 127.1015625 168.484375 C126.84016983 167.69741241 126.57877716 166.91044983 126.3094635 166.09963989 C124.79423201 161.53608386 123.28108391 156.97184067 121.76904297 152.40722656 C120.04351795 147.19817267 118.31522127 141.99004444 116.58551025 136.78237915 C115.90723345 134.73814458 115.23010538 132.6935285 114.55413818 130.64852905 C113.60908586 127.78952836 112.66040614 124.93175527 111.7109375 122.07421875 C111.42608994 121.20934845 111.14124237 120.34447815 110.84776306 119.45339966 C109.82869086 115.63111328 109.82869086 115.63111328 107.75390625 112.3984375 C107.46228104 113.27664406 107.46228104 113.27664406 107.1647644 114.17259216 C98.82849849 139.27198505 90.49202529 164.37108381 81.94140625 189.3984375 C81.51900665 190.63616409 81.51900665 190.63616409 81.08807373 191.89889526 C79.79089705 195.69752419 78.48777267 199.49381757 77.16943359 203.28515625 C76.22444911 206.00696815 75.31693381 208.73728091 74.43603516 211.48046875 C74.02144043 212.73214844 73.6068457 213.98382813 73.1796875 215.2734375 C72.65435425 216.90925781 72.65435425 216.90925781 72.1184082 218.578125 C70.45186707 222.02272746 69.05225286 223.45806476 65.75390625 225.3984375 C62.328125 225.91601562 62.328125 225.91601562 58.44140625 225.9296875 C57.75006592 225.9335144 57.05872559 225.93734131 56.34643555 225.94128418 C54.89077287 225.94399537 53.43506081 225.93668961 51.97949219 225.91992188 C49.7599558 225.8984959 47.54365529 225.91974522 45.32421875 225.9453125 C43.90494082 225.94266908 42.4856649 225.93754379 41.06640625 225.9296875 C39.14248047 225.92291992 39.14248047 225.92291992 37.1796875 225.91601562 C33.1463311 225.30664308 31.54763853 224.33563171 28.75390625 221.3984375 C26.33294312 217.01755285 25.76320031 211.87099198 24.87109375 206.9921875 C24.6959877 206.05662018 24.52088165 205.12105286 24.34046936 204.15713501 C23.76469708 201.07185334 23.19665856 197.98520425 22.62890625 194.8984375 C22.22625363 192.73025754 21.82333644 190.5621267 21.42016602 188.39404297 C18.59939265 173.18082187 15.87958354 157.95031489 13.19641113 142.71231079 C10.71725983 128.64045893 8.10156903 114.60038698 5.39343262 100.57095337 C1.79691198 81.91181039 -1.5295547 63.20580734 -4.83349609 44.49291992 C-5.23782535 42.20749646 -5.64228131 39.92209541 -6.046875 37.63671875 C-6.23872375 36.54959091 -6.43057251 35.46246307 -6.62823486 34.34239197 C-7.87221658 27.34352482 -9.22753902 20.3807786 -10.75463867 13.43823242 C-12.10733858 5.07138369 -12.10733858 5.07138369 -10.26147461 1.48583984 C-7.00124455 -0.27322311 -3.61322388 -0.02808404 0 0 Z " fill="#FDFDFD" transform="translate(80.24609375,74.6015625)"/>
<path d="M0 0 C2.18542426 -0.00217095 4.37032981 -0.02032303 6.55566406 -0.03930664 C18.76385721 -0.09107369 30.23774519 0.95937187 41.71191406 5.43530273 C42.5267627 5.74757813 43.34161133 6.05985352 44.18115234 6.3815918 C64.27873851 14.24777822 78.24699255 26.55942928 87.43457031 46.12670898 C89.65575416 51.24351544 91.07676885 56.61310292 90.08691406 62.18530273 C88.57568359 64.80322266 88.57568359 64.80322266 86.08691406 67.18530273 C83.1338939 67.69404694 80.76448445 67.88816127 77.81347656 67.84936523 C77.01211273 67.85414886 76.2107489 67.8589325 75.38510132 67.86386108 C73.6922611 67.86725834 71.99935512 67.85806783 70.30664062 67.8371582 C67.72668506 67.81045561 65.15110707 67.83687048 62.57128906 67.86889648 C60.92284202 67.86559098 59.27439769 67.85918182 57.62597656 67.84936523 C56.86016266 67.85948639 56.09434875 67.86960754 55.30532837 67.8800354 C49.59954485 67.75640706 47.08286074 66.26381508 43.08691406 62.18530273 C42.09082031 60.22827148 42.09082031 60.22827148 41.64941406 58.37280273 C39.40769068 51.50509526 34.66198128 46.8340076 28.46191406 43.31030273 C27.01328697 42.58232487 25.55599803 41.87106109 24.08691406 41.18530273 C22.81847656 40.56655273 22.81847656 40.56655273 21.52441406 39.93530273 C8.74385463 36.00282291 -9.66860415 36.33299555 -21.50292969 42.54467773 C-26.70882486 45.81840112 -30.91431928 49.18900277 -32.91308594 55.18530273 C-33.85824301 66.24696852 -33.85824301 66.24696852 -30.40917969 76.48999023 C-18.10833161 90.42881025 4.41867983 93.62648063 21.41162109 98.19165039 C50.75275013 106.12431913 50.75275013 106.12431913 64.08691406 112.18530273 C65.53710938 112.83885742 65.53710938 112.83885742 67.01660156 113.50561523 C78.11507538 119.00769149 87.94737998 127.80004347 93.08691406 139.18530273 C93.49683594 140.07862305 93.90675781 140.97194336 94.32910156 141.89233398 C97.09605007 149.17227093 97.46614279 156.08191989 97.52441406 163.81030273 C97.53456543 164.76380615 97.5447168 165.71730957 97.55517578 166.69970703 C97.35132574 183.38239263 90.17332823 196.85090935 78.89941406 208.74780273 C60.04470696 227.06650646 32.96608633 231.56051436 7.70825195 231.5559082 C5.05320775 231.56025559 2.39986627 231.59661408 -0.25488281 231.63452148 C-26.29256831 231.80615673 -52.20675273 224.72887813 -71.21777344 206.07202148 C-79.58118006 197.11469179 -86.7252275 184.23893027 -87.28808594 171.74780273 C-87.33707031 171.0065918 -87.38605469 170.26538086 -87.43652344 169.50170898 C-86.62049306 165.89047008 -84.7517318 164.48986681 -81.91308594 162.18530273 C-79.12935811 161.69641514 -76.97038549 161.50382214 -74.19824219 161.55639648 C-73.46488144 161.55398453 -72.73152069 161.55157257 -71.97593689 161.54908752 C-70.43027319 161.55006369 -68.88457353 161.56340272 -67.33911133 161.58837891 C-64.98559499 161.62265696 -62.63584498 161.6090388 -60.28222656 161.58959961 C-58.77504926 161.59650008 -57.26788159 161.6061743 -55.76074219 161.61889648 C-55.06368668 161.61393661 -54.36663116 161.60897675 -53.64845276 161.60386658 C-48.64207855 161.72324762 -45.76102401 163.03077392 -41.91308594 166.18530273 C-40.07714844 169.17358398 -40.07714844 169.17358398 -38.53808594 172.49780273 C-33.42477781 182.46763714 -26.51517178 187.6201177 -15.91308594 191.18530273 C1.173309 195.6852955 23.0173525 195.74146208 38.71191406 186.81030273 C45.12417573 182.2201805 48.40522909 176.77875717 50.08691406 169.18530273 C51.03805858 163.02606202 49.58081403 158.22155494 46.08691406 153.18530273 C35.94918164 140.81786376 12.63744238 136.42510609 -2.35058594 132.87280273 C-26.24069014 127.13434235 -58.37921239 119.22472889 -72.91308594 97.18530273 C-80.82417291 82.11236822 -84.06002295 63.99459026 -79.35058594 47.31030273 C-74.60656298 34.06378792 -66.70197194 22.90306771 -54.91308594 15.18530273 C-53.95015625 14.54592773 -52.98722656 13.90655273 -51.99511719 13.24780273 C-35.95902274 3.32159187 -18.66678169 -0.00206949 0 0 Z " fill="#FDFDFD" transform="translate(1098.9130859375,71.814697265625)"/>
<path d="M0 0 C1.7015625 -0.00290039 1.7015625 -0.00290039 3.4375 -0.00585938 C4.613125 0.01798828 5.78875 0.04183594 7 0.06640625 C8.7634375 0.0499707 8.7634375 0.0499707 10.5625 0.03320312 C20.5461509 0.11829106 20.5461509 0.11829106 25 4.62890625 C26.47584823 6.97485338 27.76139685 9.2227809 29.00390625 11.68359375 C29.36368561 12.37271851 29.72346497 13.06184326 30.09414673 13.77185059 C31.26052032 16.0107109 32.4112807 18.25722226 33.5625 20.50390625 C34.372118 22.06270623 35.18308182 23.62080791 35.99536133 25.17822266 C37.21074231 27.50868685 38.42543872 29.83946783 39.63597107 32.17245483 C42.74304626 38.15914316 45.93313219 44.09589845 49.1875 50.00390625 C54.5076183 59.68987414 59.72711821 69.42805844 64.92651367 79.17919922 C68.58924518 86.05145142 68.58924518 86.05145142 72.4375 92.8203125 C74 95.62890625 74 95.62890625 74 97.62890625 C74.66 97.62890625 75.32 97.62890625 76 97.62890625 C76.25797363 96.77941406 76.51594727 95.92992187 76.78173828 95.0546875 C78.0620815 91.45433159 79.682808 88.16821501 81.4921875 84.81640625 C82.00486176 83.85368805 82.00486176 83.85368805 82.52789307 82.871521 C83.63899356 80.78815272 84.75683272 78.70848895 85.875 76.62890625 C86.65248568 75.17496758 87.42966402 73.72086452 88.20654297 72.26660156 C92.93378394 63.42847527 97.69933989 54.61117438 102.52734375 45.82763672 C105.3489073 40.68794613 108.12180459 35.52471811 110.859375 30.33984375 C111.53228375 29.06928002 112.20529813 27.79877223 112.87841797 26.52832031 C113.86464967 24.66677287 114.84867183 22.80426156 115.82476807 20.93737793 C125.18505368 3.03637941 125.18505368 3.03637941 130 0.62890625 C134.2862621 0.3580913 138.58115362 0.39727565 142.875 0.37890625 C144.07253906 0.35828125 145.27007813 0.33765625 146.50390625 0.31640625 C147.65503906 0.31125 148.80617188 0.30609375 149.9921875 0.30078125 C151.57555908 0.2867627 151.57555908 0.2867627 153.19091797 0.27246094 C156.38706994 0.67802168 157.72470024 1.38060715 160 3.62890625 C161.15539621 7.09509487 161.13174824 9.78951215 161.14044189 13.44784546 C161.14341302 14.14516836 161.14638414 14.84249126 161.1494453 15.56094515 C161.15813337 17.90310964 161.15964062 20.24522301 161.16113281 22.58740234 C161.16576087 24.26444101 161.17078551 25.94147863 161.17617798 27.61851501 C161.18930418 32.17844462 161.19574723 36.73835949 161.20018864 41.29830503 C161.20311867 44.14619489 161.20722333 46.99408071 161.21169281 49.84196854 C161.22536759 58.74962228 161.23503465 67.65726681 161.2388947 76.56493032 C161.24337721 86.85284031 161.26093411 97.14061756 161.2898953 107.42848718 C161.31149727 115.37760738 161.32159817 123.3266902 161.32293582 131.27583945 C161.32398481 136.0250945 161.32991259 140.77422476 161.34775543 145.52344894 C161.36421073 149.99023284 161.36640403 154.45679779 161.35761642 158.92360115 C161.35684472 160.56309278 161.36120637 162.20259607 161.37107468 163.84205818 C161.38375724 166.08030051 161.37793812 168.31776305 161.36749268 170.55599976 C161.36895924 171.80850714 161.3704258 173.06101452 161.3719368 174.35147667 C160.93514763 178.20037183 159.75809351 180.87081274 157 183.62890625 C152.40226878 183.91163266 147.79288233 183.8607659 143.1875 183.87890625 C141.24133789 183.90984375 141.24133789 183.90984375 139.25585938 183.94140625 C138.00998047 183.9465625 136.76410156 183.95171875 135.48046875 183.95703125 C134.33473389 183.96637695 133.18899902 183.97572266 132.00854492 183.98535156 C128.60761259 183.58241711 127.4444673 182.969486 125 180.62890625 C124.49219131 178.51061726 124.49219131 178.51061726 124.48101807 176.01618958 C124.46710526 175.06968033 124.45319244 174.12317108 124.43885803 173.14797974 C124.4438884 172.11148285 124.44891876 171.07498596 124.45410156 170.00708008 C124.44376389 168.9142421 124.43342621 167.82140411 124.42277527 166.69544983 C124.39322676 163.07546412 124.3918455 159.4560346 124.390625 155.8359375 C124.37565156 153.32914658 124.35892619 150.82236556 124.34051514 148.31559753 C124.30121305 142.38706401 124.27960944 136.45863253 124.26654124 130.52999848 C124.24912247 123.1181969 124.20429446 115.70660418 124.16015625 108.29492188 C124.08473957 95.07296553 124.03375569 81.8510312 124 68.62890625 C123.48418365 69.63253708 122.96836731 70.63616791 122.43692017 71.67021179 C120.49773492 75.44313599 118.55819736 79.21587898 116.61856079 82.98857117 C115.783872 84.61220039 114.949275 86.23587679 114.11477661 87.85960388 C101.14230424 113.10037868 101.14230424 113.10037868 96 122.62890625 C95.63197266 123.31259277 95.26394531 123.9962793 94.88476562 124.70068359 C93.81007966 126.68360111 92.72103882 128.65772574 91.625 130.62890625 C90.71621094 132.26859375 90.71621094 132.26859375 89.7890625 133.94140625 C87.94293238 136.71463229 86.97304265 138.15236158 84 139.62890625 C81.03256053 140.10308864 78.12551383 140.13860096 75.125 140.12890625 C74.33480469 140.15726563 73.54460937 140.185625 72.73046875 140.21484375 C68.24783795 140.22976099 64.83106983 139.8437079 61.45751953 136.55615234 C57.90598433 131.86003528 55.46664728 126.45362278 52.875 121.19140625 C51.88700321 119.22449578 50.89384364 117.26025428 49.90008545 115.29624939 C49.23201104 113.97574299 48.56538561 112.65450252 47.90020752 111.33253479 C44.47211371 104.53437232 40.82090345 97.86451388 37.12060547 91.21118164 C34.4045486 86.29940617 31.82532125 81.33182379 29.32617188 76.30639648 C29.00485291 75.66194328 28.68353394 75.01749008 28.35247803 74.353508 C27.56757797 72.77900978 26.78368511 71.20400954 26 69.62890625 C25.99668985 70.1869759 25.99337971 70.74504555 25.98996925 71.3200264 C25.90874852 84.89916139 25.81653385 98.4781834 25.71247292 112.05716324 C25.66248272 118.62386199 25.6161528 125.19054443 25.578125 131.75732422 C25.54130679 138.09215269 25.49495606 144.42684566 25.44193649 150.76155853 C25.42337415 153.1808917 25.40827304 155.60025394 25.39665604 158.01963043 C25.37982529 161.40287718 25.35079739 164.78581234 25.31884766 168.16894531 C25.31668747 169.17379471 25.31452728 170.1786441 25.31230164 171.21394348 C25.30113815 172.13658493 25.28997467 173.05922638 25.2784729 174.00982666 C25.27017676 175.21000113 25.27017676 175.21000113 25.26171303 176.43442154 C24.96649137 178.90987879 24.31685909 180.51996424 23 182.62890625 C18.43241635 184.91269808 12.13958876 183.9041323 7.125 183.94140625 C5.83207031 183.97041016 4.53914062 183.99941406 3.20703125 184.02929688 C1.96566406 184.03767578 0.72429688 184.04605469 -0.5546875 184.0546875 C-1.69405762 184.06927002 -2.83342773 184.08385254 -4.00732422 184.09887695 C-7.77092278 183.50784031 -8.70174626 182.63255857 -11 179.62890625 C-11.50615788 176.43325901 -11.50615788 176.43325901 -11.5146637 172.57582092 C-11.52160922 171.86539294 -11.52855475 171.15496496 -11.53571075 170.42300886 C-11.55400903 168.04218472 -11.54370929 165.66235387 -11.53344727 163.28149414 C-11.54050437 161.57474521 -11.54924851 159.86800254 -11.55955505 158.16127014 C-11.5820828 153.52485322 -11.57910139 148.88877711 -11.57023358 144.25232625 C-11.5651282 140.38291711 -11.57241263 136.51357227 -11.57970566 132.64416975 C-11.59671555 123.51638492 -11.593128 114.38876723 -11.57641602 105.26098633 C-11.55949329 95.84163765 -11.57532881 86.42275233 -11.6076389 77.00345427 C-11.63432245 68.91840179 -11.64161415 60.83349367 -11.63312382 52.74840158 C-11.62819101 47.91862515 -11.63042925 43.08912757 -11.65091133 38.25938606 C-11.6692491 33.7177304 -11.66333333 29.17674196 -11.63871193 24.6351223 C-11.63369794 22.9682257 -11.6372091 21.30127843 -11.64986038 19.6344223 C-11.66576793 17.35850405 -11.65086574 15.08478916 -11.62818909 12.80897522 C-11.62760278 11.53564363 -11.62701647 10.26231203 -11.62641239 8.95039463 C-10.39432269 2.41736353 -6.33573872 -0.00445482 0 0 Z " fill="#FE7606" transform="translate(921,443.37109375)"/>
<path d="M0 0 C1.24501282 -0.01272446 2.49002563 -0.02544891 3.77276611 -0.03855896 C5.14978217 -0.03237673 6.52679638 -0.02577071 7.90380859 -0.01878357 C9.35602699 -0.02584192 10.80823802 -0.03458658 12.26043701 -0.04489136 C16.20261219 -0.06740371 20.14438625 -0.06444169 24.08660126 -0.05556989 C27.37702731 -0.05046227 30.66737783 -0.0577506 33.9577961 -0.06504196 C41.71916421 -0.08204644 49.48033574 -0.07846923 57.24169922 -0.06175232 C65.25122946 -0.04482412 73.26021499 -0.06067355 81.26968575 -0.0929752 C88.14539692 -0.11965487 95.02093835 -0.12695172 101.89669609 -0.11846012 C106.00378382 -0.11352685 110.11054365 -0.11576793 114.21759033 -0.13624763 C118.07886109 -0.15458002 121.9393469 -0.14867714 125.80057526 -0.12404823 C127.21794491 -0.1190327 128.63537413 -0.12254951 130.05269623 -0.13519669 C131.98657641 -0.15108881 133.92064659 -0.13318046 135.85449219 -0.11352539 C137.47827286 -0.11264593 137.47827286 -0.11264593 139.13485718 -0.1117487 C141.92724609 0.5146637 141.92724609 0.5146637 144.27345276 2.8570261 C147.48108402 8.01167345 146.53875811 14.11592361 146.48974609 20.0146637 C146.51359375 21.33337463 146.53744141 22.65208557 146.56201172 24.01075745 C146.56007813 25.28048401 146.55814453 26.55021057 146.55615234 27.8584137 C146.55723999 29.59381409 146.55723999 29.59381409 146.55834961 31.36427307 C145.6997454 35.65031902 144.41871681 36.8843215 140.92724609 39.5146637 C137.49258808 40.23105827 134.12640556 40.14688977 130.62915039 40.08229065 C129.59454178 40.08302078 128.55993317 40.08375092 127.49397278 40.08450317 C124.07926745 40.08102385 120.66593146 40.04214417 117.25146484 40.00294495 C114.8820724 39.99361811 112.51267031 39.98650139 110.14326477 39.98150635 C103.91068849 39.96242671 97.67869594 39.9133164 91.4463501 39.85798645 C83.96661186 39.79781684 76.48667832 39.77488245 69.00676727 39.74571991 C57.64652106 39.69725327 46.2875553 39.6014425 34.92724609 39.5146637 C34.92724609 59.3146637 34.92724609 79.1146637 34.92724609 99.5146637 C41.94361328 99.47985901 48.95998047 99.44505432 56.18896484 99.40919495 C60.63233253 99.39386747 65.07566766 99.37942566 69.51904297 99.36817932 C76.57274133 99.35024163 83.62632294 99.32901457 90.67993164 99.28834534 C96.36630852 99.25576414 102.0525602 99.23781318 107.73902321 99.23003197 C109.90916731 99.22448626 112.07930452 99.21365696 114.24939537 99.19747353 C117.2875897 99.17571605 120.32526577 99.17269611 123.36352539 99.17408752 C124.71111938 99.15790878 124.71111938 99.15790878 126.0859375 99.1414032 C130.84795035 99.16502249 134.09391569 99.36404401 137.92724609 102.5146637 C141.15869827 107.36184196 140.25514245 112.69301261 140.23974609 118.3896637 C140.25585938 119.57431213 140.27197266 120.75896057 140.28857422 121.97950745 C140.28921875 123.12290588 140.28986328 124.26630432 140.29052734 125.4443512 C140.2935083 126.48833069 140.29648926 127.53231018 140.29956055 128.60792542 C139.75052473 132.89436508 137.94119838 135.50071141 134.92724609 138.5146637 C133.11941338 138.76075935 133.11941338 138.76075935 130.89035034 138.75517273 C130.04618561 138.75792206 129.20202087 138.76067139 128.33227539 138.76350403 C127.40439209 138.75631348 126.47650879 138.74912292 125.52050781 138.74171448 C124.5448587 138.74200653 123.56920959 138.74229858 122.56399536 138.74259949 C119.32821869 138.74120237 116.09267021 138.7256232 112.85693359 138.7099762 C110.61776861 138.70624742 108.37860201 138.70339981 106.13943481 138.70140076 C100.23748289 138.69375362 94.33562895 138.67409585 88.43371582 138.6519928 C82.41464565 138.63155762 76.39555969 138.62240403 70.37646484 138.61231995 C58.56001548 138.59085098 46.74363892 138.55670203 34.92724609 138.5146637 C34.93390793 139.51833481 34.94056976 140.52200592 34.94743347 141.55609131 C35.00826134 151.01697988 35.0532268 160.47782874 35.08268261 169.93886852 C35.09833526 174.80283957 35.1195663 179.66665268 35.15356445 184.53053284 C35.18617208 189.22488265 35.20410212 193.9190806 35.21187782 198.61353493 C35.2174188 200.40409549 35.228239 202.19464779 35.24443626 203.98514366 C35.2662293 206.49410813 35.26921226 209.00244591 35.26782227 211.51148987 C35.27860809 212.25092331 35.28939392 212.99035675 35.30050659 213.75219727 C35.27145208 218.60227925 34.41743957 222.02447022 30.92724609 225.5146637 C28.23510237 225.65292283 25.5704486 225.72780628 22.87646484 225.75294495 C22.06611282 225.76101669 21.2557608 225.76908844 20.42085266 225.77740479 C18.70173289 225.7912619 16.98258542 225.80197675 15.26342773 225.80982971 C12.63586053 225.82702552 10.00955696 225.87089293 7.38232422 225.91505432 C5.7137137 225.92518241 4.04509246 225.93369815 2.37646484 225.94044495 C1.19814339 225.96670708 1.19814339 225.96670708 -0.00398254 225.99349976 C-3.26027209 225.98057788 -5.54208507 225.87184567 -8.2806778 224.02855682 C-10.84130389 220.43655518 -10.62638099 217.07245937 -10.58068848 212.82240295 C-10.58692844 211.93567666 -10.5931684 211.04895036 -10.59959745 210.13535357 C-10.61557832 207.1580058 -10.60290324 204.18147095 -10.59033203 201.20411682 C-10.59575088 199.07210817 -10.6028722 196.94010326 -10.61157227 194.80810547 C-10.62983666 189.01271098 -10.62272512 183.21760073 -10.61005592 177.42220116 C-10.59994444 171.36353654 -10.60931645 165.30489663 -10.61560059 159.24623108 C-10.62288238 149.07085287 -10.61327527 138.8955907 -10.59423828 128.7202301 C-10.57246861 116.94812804 -10.5795196 105.17630306 -10.6015439 93.40420771 C-10.61968268 83.30561017 -10.62226366 73.20709616 -10.61178923 63.10848761 C-10.60554595 57.0732249 -10.60474164 51.03809252 -10.61793518 45.00283813 C-10.62947085 39.32943787 -10.62150951 33.65639563 -10.59835815 27.98303413 C-10.59305887 25.89806781 -10.59460556 23.81307147 -10.60340881 21.72811699 C-10.61429964 18.8873096 -10.60067894 16.0476577 -10.58068848 13.20692444 C-10.58961136 12.3769685 -10.59853425 11.54701257 -10.60772753 10.69190645 C-10.56009857 7.21530269 -10.35280428 4.94029918 -8.42055511 2.00356388 C-5.42215585 0.10207529 -3.54435545 0.00919034 0 0 Z " fill="#FDFDFD" transform="translate(767.07275390625,74.48533630371094)"/>
<path d="M0 0 C1.08163422 -0.00810448 1.08163422 -0.00810448 2.18511963 -0.01637268 C4.57231643 -0.0288861 6.95831104 -0.0123283 9.34545898 0.00561523 C11.02058474 0.00546005 12.69571086 0.00396791 14.37083435 0.00120544 C17.8924029 -0.00018057 21.41356531 0.01239313 24.93505859 0.03515625 C29.39263507 0.06321346 33.84952018 0.06089682 38.30714512 0.04806614 C41.77619541 0.04101032 45.24509382 0.0490144 48.71412468 0.06132317 C50.35352934 0.06576589 51.99295079 0.06623918 53.63235664 0.06225777 C62.50556239 0.05081833 71.13000913 0.49558875 79.90771484 1.85693359 C80.67108689 1.97505937 81.43445894 2.09318514 82.22096348 2.21489048 C97.22199845 4.75927538 113.13487965 11.31254578 122.77905273 23.50170898 C136.79835551 43.52169818 138.29887854 64.6499096 138.11523438 88.41845703 C138.09150497 91.69580556 138.09471905 94.97234213 138.10131836 98.24975586 C138.06920896 123.46110124 136.17815963 147.01884764 118.12280273 166.24780273 C101.51890823 182.21521462 76.898617 184.15143448 55.02905273 184.03295898 C53.22875765 184.03566414 51.428464 184.03955497 49.62817383 184.04455566 C45.9039075 184.05037849 42.18003083 184.04210916 38.45581055 184.02319336 C33.685485 184.00013936 28.91604688 184.01373672 24.14575195 184.03748322 C20.45000455 184.05191229 16.75446948 184.04735314 13.05871582 184.03697205 C11.29805392 184.03431045 9.53737256 184.03755453 7.7767334 184.04689026 C5.33166785 184.05703764 2.88807102 184.04159411 0.44311523 184.01928711 C-0.27784332 184.02738403 -0.99880188 184.03548096 -1.74160767 184.04382324 C-4.88132704 183.99069369 -6.83662078 183.78111861 -9.4054184 181.91357422 C-11.87687415 178.63033356 -11.72406939 176.493683 -11.72888184 172.40393066 C-11.73824178 171.33110502 -11.73824178 171.33110502 -11.74779081 170.23660612 C-11.76374802 167.83961252 -11.75110673 165.44363203 -11.73852539 163.04663086 C-11.74394533 161.32840888 -11.75106727 159.61019154 -11.75976562 157.89198303 C-11.77801726 153.22462913 -11.7709239 148.55762849 -11.75824928 143.89026833 C-11.74813113 139.00874495 -11.75751166 134.12725208 -11.76379395 129.24572754 C-11.77107381 121.04763349 -11.76147376 112.84968351 -11.74243164 104.65161133 C-11.72066225 95.16981253 -11.72771338 85.68835775 -11.74973726 76.20656729 C-11.76788161 68.06973113 -11.77045431 59.93299862 -11.75998259 51.79614878 C-11.75374234 46.93459336 -11.7529266 42.07319972 -11.76612854 37.21165466 C-11.77767238 32.64134533 -11.76968827 28.07148009 -11.74655151 23.5012188 C-11.74125656 21.82261836 -11.74279164 20.14398064 -11.75160217 18.46539497 C-11.7625108 16.17625236 -11.74885283 13.88853851 -11.72888184 11.5994873 C-11.72737373 10.31785957 -11.72586563 9.03623184 -11.72431183 7.71576691 C-10.62278952 0.68238244 -6.41726119 0.00081919 0 0 Z M25.77905273 31.50170898 C25.77905273 71.43170898 25.77905273 111.36170898 25.77905273 152.50170898 C58.3480392 155.33754018 58.3480392 155.33754018 89.59545898 143.93530273 C99.51051938 133.22504953 100.06751052 118.66507627 100.46655273 104.81420898 C100.50490234 103.55415039 100.54325195 102.2940918 100.58276367 100.99584961 C102.34410519 68.9760234 102.34410519 68.9760234 89.33764648 40.91577148 C72.74791117 25.9985708 44.83062695 31.50170898 25.77905273 31.50170898 Z " fill="#FE7505" transform="translate(576.220947265625,443.498291015625)"/>
<path d="M0 0 C1.0094165 -0.0112793 2.01883301 -0.02255859 3.05883789 -0.03417969 C4.16026123 -0.02608276 5.26168457 -0.01798584 6.39648438 -0.00964355 C7.56107178 -0.01665283 8.72565918 -0.02366211 9.92553711 -0.03088379 C13.78067771 -0.04850975 17.63508612 -0.03682384 21.49023438 -0.02331543 C24.1653739 -0.026009 26.84049107 -0.02988396 29.515625 -0.03491211 C35.12442987 -0.0421874 40.733024 -0.03260414 46.34179688 -0.0135498 C52.82441344 0.008219 59.30652679 0.00116752 65.78913116 -0.02085543 C71.35700027 -0.03901302 76.92471797 -0.04156609 82.49260712 -0.03110075 C85.81719107 -0.02486765 89.14148689 -0.02559741 92.46606445 -0.0372467 C96.17238595 -0.04738291 99.87773545 -0.03195028 103.58398438 -0.00964355 C104.68540771 -0.01774048 105.78683105 -0.0258374 106.92163086 -0.03417969 C108.43575562 -0.01726074 108.43575562 -0.01726074 109.98046875 0 C110.85650757 0.0015081 111.73254639 0.0030162 112.63513184 0.00457001 C115.78337066 0.67745445 116.99568037 2.03526789 118.99023438 4.50793457 C119.5078125 7.11755371 119.5078125 7.11755371 119.52148438 10.04309082 C119.52921875 11.6276709 119.52921875 11.6276709 119.53710938 13.2442627 C119.52164063 14.34189941 119.50617188 15.43953613 119.49023438 16.57043457 C119.5134375 18.22269043 119.5134375 18.22269043 119.53710938 19.9083252 C119.53195312 20.96342285 119.52679687 22.01852051 119.52148438 23.10559082 C119.51697266 24.06989014 119.51246094 25.03418945 119.5078125 26.02770996 C118.99023438 28.50793457 118.99023438 28.50793457 117.4911499 30.1416626 C113.89203321 32.10789145 110.45364631 31.90181578 106.45800781 31.84851074 C105.5991095 31.84894882 104.74021118 31.8493869 103.85528564 31.84983826 C101.019828 31.84775029 98.18496358 31.82441887 95.34960938 31.80090332 C93.38234785 31.7953074 91.41508214 31.79103728 89.44781494 31.78804016 C84.27246539 31.77659114 79.09736881 31.74712335 73.92211914 31.71392822 C67.71134672 31.67783016 61.50048966 31.66406647 55.28964233 31.6465683 C45.85633046 31.61748615 36.42357354 31.5599992 26.99023438 31.50793457 C26.99023438 46.35793457 26.99023438 61.20793457 26.99023438 76.50793457 C32.94699219 76.47312988 38.90375 76.4383252 45.04101562 76.40246582 C48.80990561 76.3871411 52.57875729 76.37269953 56.34765625 76.3614502 C62.33268185 76.34350173 68.31757004 76.32224612 74.30249023 76.28161621 C79.12650752 76.24907148 83.9503775 76.23109186 88.77449608 76.22330284 C90.61694852 76.21775053 92.45939271 76.2069085 94.30178261 76.1907444 C96.87820621 76.16903492 99.45401755 76.1659649 102.03051758 76.1673584 C103.17850578 76.15117966 103.17850578 76.15117966 104.34968567 76.13467407 C109.51656786 76.16500606 109.51656786 76.16500606 111.94548035 77.92350769 C114.63790547 82.0067183 114.17342171 86.71443877 114.17773438 91.44543457 C114.18998047 92.14861816 114.20222656 92.85180176 114.21484375 93.57629395 C114.22627282 97.6412319 114.06153241 100.95993825 111.99023438 104.50793457 C108.33508931 107.08816536 104.39364033 106.77653076 100.10058594 106.73498535 C99.30996262 106.7352774 98.51933929 106.73556946 97.70475769 106.73587036 C95.09667917 106.73447924 92.48888787 106.71892836 89.88085938 106.70324707 C88.07053788 106.69951616 86.26021437 106.69666956 84.44989014 106.69467163 C79.68888763 106.68704129 74.92800745 106.66739791 70.16705322 106.64526367 C64.45267769 106.6211921 58.73826122 106.61202141 53.02384949 106.60035706 C44.34589274 106.58097319 35.66820434 106.54264645 26.99023438 106.50793457 C26.99023438 121.68793457 26.99023438 136.86793457 26.99023438 152.50793457 C33.44070313 152.46152832 39.89117188 152.41512207 46.53710938 152.36730957 C50.62045877 152.34687452 54.70374524 152.32761901 58.78710938 152.31262207 C65.27031526 152.28869857 71.75329547 152.26037904 78.23632812 152.20617676 C83.46235886 152.1627566 88.68814762 152.13880532 93.91434479 152.1284256 C95.90949565 152.12102737 97.90463307 152.10658053 99.89968109 152.08501434 C102.69155123 152.05603137 105.482418 152.05197644 108.27441406 152.05383301 C109.10159943 152.0394519 109.92878479 152.0250708 110.78103638 152.01025391 C114.4131871 152.03643727 116.54310331 152.17596993 119.50262451 154.37321472 C121.39313993 157.08610396 121.50610264 158.75167411 121.52148438 162.04309082 C121.52921875 163.6276709 121.52921875 163.6276709 121.53710938 165.2442627 C121.52164063 166.34189941 121.50617188 167.43953613 121.49023438 168.57043457 C121.5134375 170.22269043 121.5134375 170.22269043 121.53710938 171.9083252 C121.53195312 172.96342285 121.52679687 174.01852051 121.52148438 175.10559082 C121.51697266 176.06989014 121.51246094 177.03418945 121.5078125 178.02770996 C120.99023438 180.50793457 120.99023438 180.50793457 119.27574158 182.13871861 C116.57746045 183.75522176 115.03210847 183.88708323 111.90454102 183.89561462 C110.8782962 183.90551926 109.85205139 183.91542389 108.79470825 183.92562866 C107.67458344 183.92112701 106.55445862 183.91662537 105.40039062 183.9119873 C104.21629608 183.91885056 103.03220154 183.92571381 101.81222534 183.93278503 C98.5683822 183.9479487 95.32489925 183.94954763 92.08103561 183.94384265 C89.37218434 183.9407518 86.66338508 183.94684197 83.95454121 183.9528814 C77.56437665 183.96692594 71.1743458 183.96536559 64.78417969 183.95397949 C58.19251837 183.9424939 51.60126369 183.95658109 45.00965595 183.98337597 C39.348384 184.00552706 33.68723976 184.01217185 28.02592754 184.00629956 C24.64545133 184.00292782 21.2652359 184.00535915 17.88479614 184.02255058 C14.11624652 184.03738347 10.348599 184.02683919 6.58007812 184.00964355 C4.8998909 184.02414551 4.8998909 184.02414551 3.1857605 184.03894043 C1.64639328 184.02418922 1.64639328 184.02418922 0.07592773 184.00914001 C-0.81485977 184.00893073 -1.70564728 184.00872145 -2.62342834 184.00850582 C-5.93270227 183.3143343 -7.05684142 182.25665889 -9.00976562 179.50793457 C-9.51313019 176.29387665 -9.51313019 176.29387665 -9.5177002 172.41015625 C-9.52706014 171.3373306 -9.52706014 171.3373306 -9.53660917 170.24283171 C-9.55256638 167.84583811 -9.53992509 165.44985761 -9.52734375 163.05285645 C-9.53276369 161.33463446 -9.53988562 159.61641713 -9.54858398 157.89820862 C-9.56683562 153.23085472 -9.55974226 148.56385407 -9.54706764 143.89649391 C-9.53694949 139.01497054 -9.54633002 134.13347767 -9.5526123 129.25195312 C-9.55989217 121.05385907 -9.55029212 112.8559091 -9.53125 104.65783691 C-9.50948061 95.17603811 -9.51653174 85.69458334 -9.53855562 76.21279287 C-9.55669997 68.07595672 -9.55927267 59.93922421 -9.54880095 51.80237436 C-9.5425607 46.94081895 -9.54174496 42.07942531 -9.5549469 37.21788025 C-9.56649074 32.64757092 -9.55850663 28.07770567 -9.53536987 23.50744438 C-9.53007492 21.82884395 -9.53161 20.15020622 -9.54042053 18.47162056 C-9.55132916 16.18247795 -9.53767119 13.8947641 -9.5177002 11.60571289 C-9.51619209 10.32408516 -9.51468399 9.04245743 -9.51313019 7.72199249 C-9.00976562 4.50793457 -9.00976562 4.50793457 -7.29113007 2.09606934 C-4.60508 0.22621925 -3.24811263 0.00559163 0 0 Z " fill="#FE7506" transform="translate(757.009765625,443.4920654296875)"/>
<path d="M0 0 C0.73573242 -0.00428513 1.47146484 -0.00857025 2.22949219 -0.01298523 C3.77928644 -0.01870778 5.32910754 -0.01924413 6.87890625 -0.01489258 C9.24265488 -0.01172858 11.60515549 -0.03522967 13.96875 -0.06054688 C15.4791651 -0.06281979 16.98958354 -0.0635234 18.5 -0.0625 C19.2022168 -0.07170975 19.90443359 -0.08091949 20.62792969 -0.09040833 C25.01047286 -0.04930869 27.85629485 0.47010108 31.25 3.30078125 C32.70141602 5.71142578 32.70141602 5.71142578 33.94140625 8.80859375 C34.18307022 9.40519806 34.42473419 10.00180237 34.67372131 10.6164856 C35.55818035 12.83540729 36.40687072 15.06582214 37.25 17.30078125 C37.5995575 18.22548218 37.94911499 19.15018311 38.30926514 20.10290527 C40.85133444 26.86321106 43.34143534 33.64207043 45.81842041 40.42645264 C47.92337841 46.19104025 50.03880845 51.95177664 52.15402985 57.71260452 C52.86189983 59.64076839 53.56935791 61.56908307 54.27679443 63.49740601 C58.09739168 73.9074138 61.96879753 84.29763096 65.875 94.67578125 C67.05098168 97.80200797 68.22673785 100.92831945 69.40234375 104.0546875 C69.69968414 104.84529068 69.99702454 105.63589386 70.30337524 106.45045471 C74.70523271 118.16249076 79.06940084 129.88862453 83.4375 141.61328125 C83.85018127 142.72040466 84.26286255 143.82752808 84.68804932 144.96820068 C85.8693454 148.13747247 87.05001619 151.30697644 88.23046875 154.4765625 C88.75139854 155.87405983 88.75139854 155.87405983 89.28285217 157.29978943 C89.94333716 159.07430423 90.60097399 160.84988229 91.25546265 162.62661743 C91.95967324 164.52013555 92.67972586 166.40779673 93.41079712 168.29110718 C93.78352753 169.26778351 94.15625793 170.24445984 94.5402832 171.25073242 C94.88251419 172.1319426 95.22474518 173.01315277 95.5773468 173.92106628 C96.25 176.30078125 96.25 176.30078125 95.625 179.92578125 C94.25 182.30078125 94.25 182.30078125 92.25 183.30078125 C88.14592997 183.55786184 84.04019491 183.57174463 79.92871094 183.59594727 C77.88929008 183.61316064 75.85149117 183.6570496 73.8125 183.70117188 C72.52601563 183.70955078 71.23953125 183.71792969 69.9140625 183.7265625 C68.14216553 183.74843628 68.14216553 183.74843628 66.33447266 183.77075195 C62.58394852 183.19929723 61.51970657 182.28597406 59.25 179.30078125 C58.125 177.18530273 58.125 177.18530273 57.25 174.921875 C56.92 174.08205078 56.59 173.24222656 56.25 172.37695312 C55.92 171.50619141 55.59 170.63542969 55.25 169.73828125 C54.92 168.89458984 54.59 168.05089844 54.25 167.18164062 C51.81662598 160.92235627 49.54555833 154.61356666 47.25 148.30078125 C21.84 147.97078125 -3.57 147.64078125 -29.75 147.30078125 C-30.74 150.60078125 -31.73 153.90078125 -32.75 157.30078125 C-33.96288471 160.9355689 -35.28614872 164.52319549 -36.625 168.11328125 C-36.95113281 169.02787109 -37.27726562 169.94246094 -37.61328125 170.88476562 C-37.94457031 171.77099609 -38.27585937 172.65722656 -38.6171875 173.5703125 C-38.90706543 174.36026611 -39.19694336 175.15021973 -39.49560547 175.96411133 C-41.18651304 179.11391209 -42.95610168 181.06045082 -45.75 183.30078125 C-49.02392578 183.94775391 -49.02392578 183.94775391 -52.6953125 183.96484375 C-53.34700409 183.96962738 -53.99869568 183.97441101 -54.6701355 183.9793396 C-56.04004345 183.98272614 -57.41003359 183.97361054 -58.77978516 183.95263672 C-60.87714813 183.92575372 -62.96920453 183.95245786 -65.06640625 183.984375 C-66.40105346 183.98107236 -67.73569737 183.97466911 -69.0703125 183.96484375 C-70.27961426 183.9592041 -71.48891602 183.95356445 -72.73486328 183.94775391 C-75.75 183.30078125 -75.75 183.30078125 -77.74438477 181.08764648 C-78.97894347 177.66630936 -78.70905122 176.45830043 -77.51953125 173.046875 C-76.92519287 171.31800049 -76.92519287 171.31800049 -76.31884766 169.55419922 C-75.7986553 168.13537942 -75.27542234 166.71767259 -74.75 165.30078125 C-74.44366638 164.4623468 -74.13733276 163.62391235 -73.82171631 162.7600708 C-71.51844098 156.46834248 -69.16070598 150.19786035 -66.78839111 143.93188477 C-64.68080975 138.36435814 -62.58398113 132.79278454 -60.48706818 127.22123337 C-59.99627858 125.91734959 -59.50534623 124.61351955 -59.0142746 123.30974197 C-53.74150497 109.31040922 -48.53501801 95.28680167 -43.34060669 81.25823975 C-41.88244008 77.32033215 -40.42277259 73.38298218 -38.96264648 69.44580078 C-38.60685627 68.48641161 -38.60685627 68.48641161 -38.24387836 67.50764084 C-37.53500636 65.59623047 -36.8261027 63.68483185 -36.1171875 61.7734375 C-35.20018273 59.30094868 -34.28319028 56.82845529 -33.36621094 54.35595703 C-32.92772827 53.17366516 -32.48924561 51.99137329 -32.03747559 50.77325439 C-30.80067744 47.43746427 -29.56480488 44.10133253 -28.32910156 40.76513672 C-26.5449422 35.94963633 -24.75583141 31.13600737 -22.96234131 26.32397461 C-22.32956929 24.6237936 -21.69853667 22.92296402 -21.06939697 21.22143555 C-20.22275707 18.93233138 -19.37003275 16.64558894 -18.515625 14.359375 C-18.27611115 13.70730576 -18.03659729 13.05523651 -17.78982544 12.38340759 C-14.35047766 3.24060075 -14.35047766 3.24060075 -10.546875 1.00708008 C-7.01291539 0.11464422 -3.62086621 -0.00469952 0 0 Z M8.25 37.30078125 C7.83443596 38.44138252 7.83443596 38.44138252 7.41047668 39.60502625 C4.7789962 46.82702575 2.14639312 54.04861462 -0.48742199 61.26976299 C-1.84093245 64.98081049 -3.19403238 68.69200652 -4.54614258 72.40356445 C-5.85489285 75.99604923 -7.16478872 79.5881145 -8.47542763 83.17991066 C-8.97130134 84.53944309 -9.46678566 85.89911763 -9.96184349 87.25894737 C-12.82150001 95.11297271 -15.74653315 102.93150186 -18.85029602 110.69319153 C-19.91308203 113.31369784 -19.91308203 113.31369784 -19.75 116.30078125 C-0.94 116.30078125 17.87 116.30078125 37.25 116.30078125 C36.58735222 112.32489456 36.08551605 109.44504593 34.73461914 105.82543945 C34.42630157 104.99122971 34.11798401 104.15701996 33.80032349 103.29753113 C33.4653183 102.40786148 33.13031311 101.51819183 32.78515625 100.6015625 C32.43581024 99.66077347 32.08646423 98.71998444 31.72653198 97.75068665 C30.59352873 94.70299341 29.45307775 91.65814689 28.3125 88.61328125 C27.53602313 86.52867542 26.76006405 84.44387665 25.98461914 82.35888672 C24.45103715 78.2374568 22.91476852 74.11704607 21.37597656 69.99755859 C18.6307241 62.64611722 15.90854054 55.28620874 13.1875 47.92578125 C12.40516975 45.8137199 11.62264597 43.70173022 10.83984375 41.58984375 C10.37372681 40.33228271 10.37372681 40.33228271 9.89819336 39.04931641 C9.68428955 38.4722998 9.47038574 37.8952832 9.25 37.30078125 C8.92 37.30078125 8.59 37.30078125 8.25 37.30078125 Z " fill="#FE7505" transform="translate(445.75,443.69921875)"/>
<path d="M0 0 C0.7139946 -0.00570007 1.4279892 -0.01140015 2.16362 -0.01727295 C3.67408777 -0.02671151 5.18457602 -0.03325239 6.69506836 -0.03710938 C8.99304661 -0.04679629 11.29012289 -0.07782106 13.58789062 -0.109375 C15.05858846 -0.11590756 16.52929267 -0.12115704 18 -0.125 C18.68145584 -0.1373468 19.36291168 -0.1496936 20.0650177 -0.16241455 C24.68196151 -0.14111575 27.880555 0.58009994 31.69921875 3.203125 C33.36035156 5.91259766 33.36035156 5.91259766 34.65234375 9.2421875 C35.01733978 10.16180771 35.01733978 10.16180771 35.38970947 11.1000061 C36.18419326 13.12584197 36.94419488 15.16227909 37.69921875 17.203125 C38.08895874 18.23705383 38.08895874 18.23705383 38.48657227 19.29187012 C40.20608841 23.8565326 41.87616503 28.43803487 43.52947998 33.02703857 C45.1668627 37.56865948 46.82002507 42.10453497 48.47265625 46.640625 C48.819263 47.59246674 49.16586975 48.54430847 49.52297974 49.5249939 C53.307591 59.90077349 57.18680798 70.24051782 61.07421875 80.578125 C61.80436775 82.52169578 62.53442822 84.46529981 63.2644043 86.40893555 C64.42723561 89.50489 65.59010694 92.60082936 66.75315857 95.69670105 C71.73808416 108.96645153 76.72033681 122.23719307 81.68749237 135.51360703 C83.11232313 139.32168098 84.53854698 143.12921963 85.96820068 146.93548584 C87.31847435 150.53046993 88.66514051 154.12678475 90.00911903 157.72412682 C90.50856462 159.05903031 91.00932071 160.39344432 91.51146507 161.72733498 C92.20332476 163.56583609 92.88999163 165.40628882 93.57641602 167.24682617 C93.96402603 168.28119308 94.35163605 169.31556 94.75099182 170.38127136 C97.05152825 177.22749868 97.05152825 177.22749868 95.88671875 180.453125 C94.69921875 182.203125 94.69921875 182.203125 92.69921875 183.203125 C88.61391918 183.48354786 84.52698341 183.51671645 80.43286133 183.55322266 C79.07396289 183.56976097 77.7151507 183.59702421 76.35668945 183.63525391 C74.39197189 183.69022107 72.4263435 183.70879389 70.4609375 183.7265625 C69.28490967 183.74638184 68.10888184 183.76620117 66.8972168 183.78662109 C62.65947254 183.01341636 61.33014566 181.56985818 58.69921875 178.203125 C57.12182617 175.00512695 57.12182617 175.00512695 55.8046875 171.44140625 C55.56760574 170.80953903 55.33052399 170.17767181 55.08625793 169.5266571 C54.34018745 167.5274874 53.61367517 165.5218124 52.88671875 163.515625 C52.38074013 162.15776178 51.87358918 160.80033479 51.36523438 159.44335938 C47.69921875 149.56743579 47.69921875 149.56743579 47.69921875 147.203125 C22.28921875 147.203125 -3.12078125 147.203125 -29.30078125 147.203125 C-30.29078125 150.503125 -31.28078125 153.803125 -32.30078125 157.203125 C-33.51366596 160.83791265 -34.83692997 164.42553924 -36.17578125 168.015625 C-36.50191406 168.93021484 -36.82804687 169.84480469 -37.1640625 170.78710938 C-37.49535156 171.67333984 -37.82664063 172.55957031 -38.16796875 173.47265625 C-38.45784668 174.26260986 -38.74772461 175.05256348 -39.04638672 175.86645508 C-40.73729429 179.01625584 -42.50688293 180.96279457 -45.30078125 183.203125 C-48.57470703 183.85009766 -48.57470703 183.85009766 -52.24609375 183.8671875 C-52.89778534 183.87197113 -53.54947693 183.87675476 -54.22091675 183.88168335 C-55.5908247 183.88506989 -56.96081484 183.87595429 -58.33056641 183.85498047 C-60.42792938 183.82809747 -62.51998578 183.85480161 -64.6171875 183.88671875 C-65.95183471 183.88341611 -67.28647862 183.87701286 -68.62109375 183.8671875 C-69.83039551 183.86154785 -71.03969727 183.8559082 -72.28564453 183.85009766 C-75.30078125 183.203125 -75.30078125 183.203125 -77.30395508 181.01269531 C-78.55587348 177.48414352 -78.16124331 176.09713239 -76.9296875 172.5859375 C-76.33631592 170.85972168 -76.33631592 170.85972168 -75.73095703 169.09863281 C-75.25620053 167.7994091 -74.77937663 166.50093949 -74.30078125 165.203125 C-73.78874126 163.78228366 -73.27686633 162.36138284 -72.76513672 160.94042969 C-70.95973071 155.97241143 -69.09893909 151.02565188 -67.23828125 146.078125 C-66.53256379 144.19285622 -65.8272522 142.30743547 -65.12231445 140.421875 C-63.6241749 136.41573375 -62.12421745 132.41027985 -60.62304688 128.40527344 C-57.12529955 119.06923905 -53.64979482 109.72491916 -50.17175293 100.38153076 C-48.98526709 97.19502997 -47.79796146 94.00883592 -46.61035156 90.82275391 C-42.86609771 80.77767142 -39.12434383 70.73168022 -35.39176941 60.68225098 C-33.67190965 56.05214445 -31.95069945 51.42254045 -30.22940063 46.79296875 C-29.41441894 44.5998586 -28.60008736 42.40650673 -27.78646851 40.21289062 C-25.62297965 34.38015494 -23.45022901 28.55115002 -21.25384521 22.73071289 C-20.63653642 21.09356965 -20.02182507 19.45544368 -19.41021729 17.81616211 C-18.62049614 15.70634343 -17.81687194 13.60246425 -17.0078125 11.5 C-16.57573486 10.36401367 -16.14365723 9.22802734 -15.69848633 8.05761719 C-14.23922233 5.07740503 -12.84817265 3.3095684 -10.30078125 1.203125 C-6.80718148 0.03859174 -3.63655516 0.02247894 0 0 Z M8.69921875 37.203125 C8.49591949 37.75704422 8.29262024 38.31096344 8.0831604 38.88166809 C5.91432359 44.79074343 3.74484216 50.69958185 1.57513428 56.6083374 C0.32973405 60.00060223 -0.91498784 63.39311543 -2.15966797 66.78564453 C-9.22572608 86.03713842 -9.22572608 86.03713842 -12.72265625 95.36328125 C-12.96331818 96.00644791 -13.2039801 96.64961456 -13.45193481 97.31227112 C-14.5145952 100.15163941 -15.58179132 102.9891123 -16.65771484 105.82348633 C-17.01687988 106.78150146 -17.37604492 107.7395166 -17.74609375 108.7265625 C-18.05047363 109.53013184 -18.35485352 110.33370117 -18.66845703 111.16162109 C-19.44871495 113.32454153 -19.44871495 113.32454153 -19.30078125 116.203125 C-0.49078125 116.203125 18.31921875 116.203125 37.69921875 116.203125 C37.01328177 112.77344009 36.35295645 109.96871991 35.18383789 106.74951172 C34.87552032 105.89521072 34.56720276 105.04090973 34.24954224 104.16072083 C33.74703445 102.7856562 33.74703445 102.7856562 33.234375 101.3828125 C32.88502899 100.41836716 32.53568298 99.45392181 32.17575073 98.46025085 C31.04131197 95.33156554 29.90165099 92.2048125 28.76171875 89.078125 C27.98554177 86.94140357 27.20958183 84.80460329 26.43383789 82.66772461 C20.91862997 67.48955802 15.35766035 52.32853369 9.69921875 37.203125 C9.36921875 37.203125 9.03921875 37.203125 8.69921875 37.203125 Z " fill="#FE7606" transform="translate(86.30078125,443.796875)"/>
<path d="M0 0 C0.80469223 -0.00241196 1.60938446 -0.00482391 2.4384613 -0.00730896 C4.13374782 -0.00633247 5.829067 0.00701417 7.52416992 0.03198242 C10.11682434 0.06634966 12.70607882 0.05261987 15.29882812 0.03320312 C16.94923323 0.04010054 18.59962956 0.04977199 20.25 0.0625 C21.40949913 0.0550602 21.40949913 0.0550602 22.59242249 0.04747009 C25.85671546 0.11883899 28.06812765 0.27999454 30.76423264 2.19797134 C33.15851208 5.4416537 33.10411956 8.17959308 33.03961182 12.05731201 C33.04302952 12.80801979 33.04644722 13.55872757 33.04996848 14.33218408 C33.05656018 16.84912246 33.03455103 19.36499572 33.01269531 21.88183594 C33.01156711 23.68535843 33.01220016 25.48888276 33.01446533 27.29240417 C33.01561447 32.19093193 32.99207285 37.08906906 32.9641695 41.98750591 C32.9391891 47.10576594 32.9368165 52.22403461 32.93206787 57.34234619 C32.91962821 67.03564974 32.88679316 76.72877314 32.84666991 86.42199731 C32.80198304 97.4569212 32.77997292 108.49185363 32.75988817 119.52684546 C32.71806144 142.22763231 32.64769009 164.9282592 32.55859375 187.62890625 C33.87546677 187.61780319 35.19233978 187.60670013 36.54911804 187.59526062 C48.95319483 187.49394723 61.35718778 187.41897061 73.76158428 187.36984539 C80.13900165 187.34374057 86.51608527 187.30832516 92.89331055 187.25170898 C99.04654538 187.1974226 105.199459 187.16749238 111.35291481 187.15452003 C113.70171987 187.14527423 116.05050715 187.12721947 118.39917564 187.10025597 C121.68667098 187.06401198 124.97283539 187.05895916 128.26049805 187.0612793 C129.7203009 187.03431473 129.7203009 187.03431473 131.20959473 187.00680542 C135.82290074 187.04208542 137.88812519 187.1214843 141.66377258 189.97895813 C143.96068879 193.1912448 144.17825545 194.92556771 144.15234375 198.84765625 C144.14976562 200.02714844 144.1471875 201.20664062 144.14453125 202.421875 C144.11617187 203.64519531 144.0878125 204.86851562 144.05859375 206.12890625 C144.06117188 207.35222656 144.06375 208.57554687 144.06640625 209.8359375 C143.95530654 220.00156067 143.95530654 220.00156067 140.55859375 224.62890625 C137.85509041 225.98065792 135.74776218 225.76105118 132.71961975 225.76934814 C130.85405678 225.77791336 130.85405678 225.77791336 128.95080566 225.78665161 C127.56494151 225.78789702 126.17907724 225.7890221 124.79321289 225.79003906 C123.33967462 225.79466624 121.88613756 225.79969077 120.43260193 225.80508423 C116.47810006 225.81821836 112.52361517 225.82465495 108.5690949 225.82909489 C106.1003002 225.83202348 103.63151017 225.83612784 101.16271782 225.84059906 C93.44360629 225.85427556 85.7245054 225.86394193 78.0053826 225.86780095 C69.08485602 225.87228473 60.16448244 225.88984675 51.2440024 225.91880155 C44.35479702 225.94038959 37.46563479 225.95050366 30.57639593 225.95184207 C26.45875418 225.95289201 22.34125622 225.95883984 18.22364998 225.97666168 C14.35193778 225.9930932 10.48047822 225.99532205 6.60874367 225.98652267 C5.18610713 225.98574969 3.76345728 225.99012927 2.34085464 225.99998093 C0.40212774 226.01262171 -1.53669984 226.00506073 -3.47544861 225.99639893 C-4.56148849 225.99786549 -5.64752836 225.99933205 -6.76647854 226.00084305 C-9.44140625 225.62890625 -9.44140625 225.62890625 -11.2517786 224.29343796 C-14.10334011 220.30352182 -13.59246832 215.85587039 -13.5953064 211.17752075 C-13.59968865 210.3046051 -13.6040709 209.43168945 -13.60858595 208.53232181 C-13.62198221 205.59592723 -13.62815462 202.65956266 -13.63427734 199.72314453 C-13.64217749 197.62246566 -13.65044638 195.52178814 -13.65905762 193.42111206 C-13.68528195 186.51382749 -13.70058298 179.60653683 -13.71484375 172.69921875 C-13.72020275 170.32348501 -13.72558026 167.94775132 -13.7309761 165.57201767 C-13.75260302 155.6930729 -13.77134161 145.81412977 -13.7825985 135.93516731 C-13.79885098 121.76437602 -13.83206263 107.59385834 -13.88899934 93.42317021 C-13.92764877 83.46557675 -13.94722511 73.50805664 -13.95251906 63.55039012 C-13.95617858 57.59939857 -13.96826432 51.64869881 -14.0006218 45.69778824 C-14.03061526 40.10154777 -14.03704533 34.50577703 -14.02523804 28.90947342 C-14.02501659 26.85393018 -14.03338012 24.79836569 -14.05089188 22.74289703 C-14.07347908 19.93944726 -14.06533738 17.13771594 -14.04940796 14.33425903 C-14.07023109 13.11018048 -14.07023109 13.11018048 -14.09147489 11.86137307 C-14.03489687 7.82857817 -13.6226978 5.86633693 -11.14719582 2.62426567 C-7.50729924 -0.0599423 -4.3553257 -0.07489712 0 0 Z " fill="#FDFDFD" transform="translate(582.44140625,74.37109375)"/>
<path d="M0 0 C11.84267101 11.07425343 16.63313177 24.53899969 18.01171875 40.421875 C17.796875 43.1015625 17.796875 43.1015625 16.73046875 44.73974609 C12.49962285 47.71950094 6.16679478 46.61797924 1.1184082 46.60253906 C-1.1300475 46.60156707 -3.37508448 46.64317606 -5.62304688 46.6875 C-7.0546804 46.69270765 -8.48632576 46.69539518 -9.91796875 46.6953125 C-11.21855225 46.70240234 -12.51913574 46.70949219 -13.85913086 46.71679688 C-17.203125 46.1015625 -17.203125 46.1015625 -19.57446289 43.77319336 C-21.47565374 40.65451078 -22.58594673 37.64014758 -23.703125 34.1640625 C-26.4793441 25.54465252 -30.29534657 19.60127481 -38.203125 15.1015625 C-50.37859576 10.20861631 -64.56913588 9.67859788 -76.9296875 14.0703125 C-85.85992749 18.0632899 -90.90230779 24.18903273 -94.37890625 33.21875 C-96.80995811 41.72167072 -97.51117001 49.79039722 -97.50390625 58.6171875 C-97.51033394 60.37733185 -97.51033394 60.37733185 -97.51689148 62.17303467 C-97.52260627 64.64383299 -97.52315622 67.11464813 -97.51879883 69.58544922 C-97.51564587 73.32679576 -97.53911125 77.06734506 -97.56445312 80.80859375 C-97.93940332 102.45984579 -97.93940332 102.45984579 -90.2890625 122.33203125 C-89.203125 124.1015625 -89.203125 124.1015625 -88.203125 127.1015625 C-86.38705217 128.19771795 -86.38705217 128.19771795 -84.203125 129.1015625 C-83.4915625 129.50375 -82.78 129.9059375 -82.046875 130.3203125 C-70.51248828 136.62577724 -57.84172388 137.56611563 -45.1171875 134.3125 C-35.92457733 131.2147163 -30.35172189 127.44821285 -25.546875 118.9375 C-23.66433411 114.96446312 -22.36578448 110.89042012 -21.16015625 106.66796875 C-20.11536839 103.86623151 -19.60929302 102.83926415 -17.203125 101.1015625 C-13.97265625 100.71337891 -13.97265625 100.71337891 -10.015625 100.703125 C-8.96725464 100.69881973 -8.96725464 100.69881973 -7.89770508 100.69442749 C-6.42170399 100.69238825 -4.94567579 100.69790847 -3.46972656 100.71044922 C-1.21097362 100.7265067 1.04599018 100.7105978 3.3046875 100.69140625 C4.73958728 100.69338871 6.17448595 100.69723244 7.609375 100.703125 C8.91519531 100.70650879 10.22101563 100.70989258 11.56640625 100.71337891 C14.796875 101.1015625 14.796875 101.1015625 16.73046875 102.44750977 C19.49149873 106.73001391 17.56047433 113.36819521 16.796875 118.1015625 C12.68137587 134.59888519 2.31160423 147.70424652 -12.1640625 156.4375 C-35.06653377 168.97792771 -63.42764206 171.51822342 -88.58984375 164.4765625 C-104.6682595 159.57647389 -118.16119366 150.63607977 -126.74609375 135.91015625 C-134.99186631 120.01549011 -137.34969416 104.02135778 -137.37109375 86.30859375 C-137.37442215 85.31889084 -137.37775055 84.32918793 -137.38117981 83.30949402 C-137.38620544 81.22969013 -137.3885895 79.14987831 -137.38842773 77.07006836 C-137.39060753 73.9391506 -137.40879229 70.80858977 -137.42773438 67.67773438 C-137.49327484 44.88242305 -135.72701416 24.17509542 -122.203125 5.1015625 C-121.72101563 4.41578125 -121.23890625 3.73 -120.7421875 3.0234375 C-110.2538429 -10.4355943 -92.30226563 -17.60082002 -75.88793945 -19.93603516 C-48.28882262 -23.31209225 -21.39772297 -18.43846341 0 0 Z " fill="#FE7606" transform="translate(336.203125,461.8984375)"/>
<path d="M0 0 C11.21957257 8.11808951 16.20557044 19.13252124 19.2109375 32.30859375 C19.38720169 32.89725723 19.56346588 33.48592072 19.74507141 34.09242249 C20.36137459 37.02423795 20.34635448 39.80226353 20.35620117 42.79858398 C20.36258102 44.117733 20.36896088 45.43688202 20.37553406 46.79600525 C20.37706402 48.23639896 20.37817729 49.67679316 20.37890625 51.1171875 C20.38212326 52.6049045 20.38548766 54.09262118 20.38899231 55.58033752 C20.39498013 58.70322399 20.39683286 61.82608281 20.39624023 64.94897461 C20.39613929 68.91600369 20.40972185 72.88285103 20.42701244 76.8498373 C20.43823883 79.9274219 20.44015612 83.00496426 20.43963051 86.08256721 C20.44079736 87.54273154 20.44514472 89.00289744 20.45296288 90.46304131 C20.54083731 108.58910877 18.8781293 125.59634271 5.6484375 139.18359375 C-6.79836637 150.03465353 -20.34260209 151.20257599 -36.20556641 150.52636719 C-47.79013563 149.54985653 -57.22207037 143.57280069 -64.81640625 135.02734375 C-69.67360028 128.70169571 -71.91070062 121.99118287 -73.7890625 114.30859375 C-74.1305835 113.04700439 -74.47210449 111.78541504 -74.82397461 110.4855957 C-76.23490776 104.06920052 -76.07520328 97.64673549 -76.0546875 91.10546875 C-76.05603879 89.73699881 -76.05798317 88.36852935 -76.06048584 87.00006104 C-76.06341928 84.14240921 -76.05919994 81.28488318 -76.04980469 78.42724609 C-76.03845469 74.80223852 -76.04495257 71.17752869 -76.05694962 67.5525322 C-76.06425397 64.72800546 -76.06184074 61.90354667 -76.05669403 59.07901764 C-76.05474829 57.10465803 -76.0607242 55.13029556 -76.06695557 53.15594482 C-75.97389475 34.98054235 -73.33151076 18.14739897 -60.5390625 4.49609375 C-44.75532868 -10.54362568 -18.10371751 -10.9788651 0 0 Z " fill="#010101" transform="translate(459.7890625,115.69140625)"/>
<path d="M0 0 C1.8881543 -0.05510742 1.8881543 -0.05510742 3.81445312 -0.11132812 C14.18448534 -0.16052701 14.18448534 -0.16052701 18.2890625 3.10546875 C21.4663027 6.48798148 23.65542787 10.32334374 25.75 14.4375 C26.60920429 16.05095992 27.47134306 17.66285954 28.3359375 19.2734375 C28.79323242 20.1303418 29.25052734 20.98724609 29.72167969 21.87011719 C32.3313537 26.66350244 35.1095672 31.357833 37.875 36.0625 C39.06154327 38.08964165 40.24773399 40.11698968 41.43359375 42.14453125 C42.04058105 43.18174316 42.64756836 44.21895508 43.27294922 45.28759766 C46.33595686 50.52697339 49.39182289 55.77040328 52.4347229 61.02148438 C53.41717297 62.71496172 54.40325112 64.40633263 55.3894043 66.09765625 C55.98793213 67.13148438 56.58645996 68.1653125 57.203125 69.23046875 C57.73196289 70.14078857 58.26080078 71.0511084 58.80566406 71.98901367 C60.13478571 74.46432662 61.20079313 76.93434168 62.1875 79.5625 C62.8475 79.5625 63.5075 79.5625 64.1875 79.5625 C64.45739746 78.84529785 64.72729492 78.1280957 65.00537109 77.38916016 C66.19108221 74.55393436 67.56206385 71.99437242 69.1015625 69.3359375 C69.9838855 67.80827759 69.9838855 67.80827759 70.8840332 66.24975586 C71.52042725 65.15671143 72.15682129 64.06366699 72.8125 62.9375 C73.47403076 61.79611572 74.13556152 60.65473145 74.81713867 59.47875977 C80.97388685 48.86974192 87.22702252 38.31793266 93.5 27.77734375 C95.79040549 23.92642279 98.06465811 20.06732372 100.3125 16.19140625 C100.77358154 15.39806885 101.23466309 14.60473145 101.7097168 13.78735352 C102.53801098 12.35911418 103.36271279 10.92878199 104.18286133 9.49584961 C108.45556446 2.13981185 108.45556446 2.13981185 113.1875 0.5625 C117.66249473 0.30082759 122.14318181 0.33106786 126.625 0.3125 C127.86572266 0.291875 129.10644531 0.27125 130.38476562 0.25 C132.17237305 0.24226563 132.17237305 0.24226563 133.99609375 0.234375 C135.08720459 0.2250293 136.17831543 0.21568359 137.30249023 0.20605469 C140.53300387 0.60518729 141.89467398 1.28663025 144.1875 3.5625 C145.64832055 9.73778688 141.59740337 14.780096 138.5625 19.875 C137.36243812 21.94091672 136.16324932 24.00734079 134.96484375 26.07421875 C134.34077637 27.1420459 133.71670898 28.20987305 133.07373047 29.31005859 C130.0255204 34.56611018 127.0793517 39.87831984 124.125 45.1875 C119.37734577 53.68505619 114.5783748 62.15112623 109.73510742 70.59448242 C105.18679836 78.53569857 100.71534733 86.51925514 96.2578125 94.51171875 C95.71382812 95.48625 95.16984375 96.46078125 94.609375 97.46484375 C93.79484863 98.97981445 93.79484863 98.97981445 92.96386719 100.52539062 C91.1875 103.5625 91.1875 103.5625 89.01269531 106.31835938 C80.3507493 118.2136372 82.20240786 132.97359261 82.40777588 147.03149414 C82.48618047 152.71848314 82.50923275 158.40537685 82.5076828 164.09284592 C82.5154893 166.06724096 82.55147256 168.04145999 82.58795166 170.01553345 C82.59710602 171.80922867 82.59710602 171.80922867 82.60644531 173.63916016 C82.6216925 174.68947418 82.6369397 175.73978821 82.65264893 176.82192993 C82.06421892 180.28884893 80.94946312 181.44950631 78.1875 183.5625 C75.02709961 184.06420898 75.02709961 184.06420898 71.33984375 184.05859375 C70.68673721 184.06004898 70.03363068 184.06150421 69.36073303 184.06300354 C67.98482791 184.06134854 66.60890351 184.04983152 65.2331543 184.02905273 C63.1279446 184.00004058 61.02524645 184.00845972 58.91992188 184.02148438 C57.58071694 184.01524797 56.24151994 184.00685778 54.90234375 183.99609375 C53.68667725 183.98634521 52.47101074 183.97659668 51.21850586 183.96655273 C48.1875 183.5625 48.1875 183.5625 46.33032227 182.22290039 C44.01541158 178.85957897 44.09976087 175.94082522 44.2043457 172.00317383 C44.33167118 166.23486984 44.40683137 160.46882858 44.43958759 154.69936085 C44.46314567 151.22118983 44.51062406 147.7469895 44.6159668 144.27026367 C45.17429953 124.99490846 42.36087577 111.29395941 30.97276306 95.20178223 C27.98577607 90.78590546 25.54438608 86.0869434 23.0625 81.375 C17.78030952 71.58359477 12.28511993 61.92562127 6.74365234 52.27929688 C2.90522384 45.57800531 -0.88905919 38.85170168 -4.67578125 32.12109375 C-6.71501721 28.49683534 -8.77540651 24.88612421 -10.85546875 21.28515625 C-11.7787519 19.66933144 -12.70193473 18.05344929 -13.625 16.4375 C-14.05184082 15.70958252 -14.47868164 14.98166504 -14.91845703 14.23168945 C-18.73186025 7.50662566 -18.73186025 7.50662566 -17.8125 3.5625 C-12.95293842 -1.19506721 -6.36702799 0.00969106 0 0 Z " fill="#FE7607" transform="translate(1124.8125,443.4375)"/>
<path d="M0 0 C0.78532608 -0.00524185 1.57065216 -0.0104837 2.379776 -0.0158844 C4.03987445 -0.02230447 5.7000184 -0.02096775 7.36010742 -0.01245117 C9.897799 -0.00394766 12.43323439 -0.0326886 14.97070312 -0.06445312 C16.58463474 -0.06606544 18.19857034 -0.06548702 19.8125 -0.0625 C20.94859962 -0.07935097 20.94859962 -0.07935097 22.10765076 -0.09654236 C25.58477728 -0.0506497 27.60969052 0.1707135 30.4597168 2.23486328 C35.13064221 9.02304373 31.03586849 22.66651682 30.09765625 30.62109375 C29.72183848 33.84596583 29.34964769 37.07123629 28.98046875 40.296875 C28.844664 41.48156372 28.844664 41.48156372 28.70611572 42.69018555 C28.18858219 47.28127447 27.74849718 51.86864955 27.40234375 56.4765625 C27.32612793 57.48114502 27.24991211 58.48572754 27.17138672 59.52075195 C27.04338059 61.31645468 26.92932541 63.11323395 26.83251953 64.91088867 C26.42081165 70.61939925 25.12177801 74.28447199 20.97265625 78.43359375 C17.56577703 78.76851592 14.1438778 78.75861575 10.72265625 78.80859375 C9.76746094 78.84597656 8.81226563 78.88335937 7.828125 78.921875 C3.42905042 78.97693991 0.7312505 78.88720609 -3.09765625 76.59765625 C-5.89703505 72.00758171 -6.19652054 67.72714387 -6.65234375 62.43359375 C-6.76296143 61.34506104 -6.8735791 60.25652832 -6.98754883 59.13500977 C-7.22410496 56.79414838 -7.45174652 54.45237241 -7.67138672 52.10986328 C-8.03374391 48.3674939 -8.44752604 44.63389488 -8.875 40.8984375 C-12.78729549 6.26522214 -12.78729549 6.26522214 -10.00415039 1.78735352 C-6.90757136 -0.3332505 -3.62587459 -0.01401622 0 0 Z " fill="#FCFCFC" transform="translate(953.02734375,71.56640625)"/>
<path d="M0 0 C1.5121685 -0.00639748 1.5121685 -0.00639748 3.05488586 -0.01292419 C4.72016327 -0.01224442 4.72016327 -0.01224442 6.41908264 -0.0115509 C8.1679351 -0.01658882 8.1679351 -0.01658882 9.95211792 -0.02172852 C13.82270867 -0.03126097 17.69325626 -0.03318274 21.56385803 -0.03425598 C23.56728376 -0.03665589 25.57070949 -0.03905733 27.57413489 -0.0417164 C33.87596964 -0.0498638 40.1777901 -0.05230036 46.47962952 -0.05158997 C52.98480856 -0.05098902 59.48990471 -0.06154342 65.99506277 -0.07733363 C71.57642411 -0.09039974 77.15775833 -0.09577426 82.73913485 -0.09513456 C86.07427188 -0.0948793 89.4093185 -0.09866022 92.74444389 -0.10831261 C96.46288382 -0.1180669 100.18110829 -0.11525252 103.89955139 -0.10920715 C105.0077121 -0.11482666 106.1158728 -0.12044617 107.25761414 -0.12623596 C108.77401237 -0.11994423 108.77401237 -0.11994423 110.32104492 -0.11352539 C111.20060317 -0.11407016 112.08016142 -0.11461493 112.98637295 -0.1151762 C115.22401428 0.13371277 115.22401428 0.13371277 118.22401428 2.13371277 C117.89401428 2.79371277 117.56401428 3.45371277 117.22401428 4.13371277 C115.57401428 4.13371277 113.92401428 4.13371277 112.22401428 4.13371277 C112.22401428 3.47371277 112.22401428 2.81371277 112.22401428 2.13371277 C97.1512178 2.2175573 82.07852391 2.31267009 67.00588512 2.42123985 C60.00757221 2.47138598 53.00927113 2.5178286 46.01087952 2.55558777 C39.26108916 2.59201599 32.51144229 2.63871826 25.7617588 2.69177628 C23.18250578 2.71035463 20.60322532 2.72544976 18.0239315 2.73705673 C14.42016284 2.75386022 10.81668929 2.78288123 7.21302795 2.81486511 C6.13912811 2.8170253 5.06522827 2.81918549 3.95878601 2.82141113 C2.48853722 2.83815636 2.48853722 2.83815636 0.98858643 2.85523987 C-0.29040134 2.86353601 -0.29040134 2.86353601 -1.59522724 2.87199974 C-4.06804296 3.00225823 -4.06804296 3.00225823 -6.77598572 5.13371277 C-6.77598572 3.81371277 -6.77598572 2.49371277 -6.77598572 1.13371277 C-4.3265023 -0.09102894 -2.73906829 0.00522105 0 0 Z " fill="#FC9739" transform="translate(756.7759857177734,443.8662872314453)"/>
<path d="M0 0 C10.13535144 -0.06941159 20.27064664 -0.12276615 30.40618706 -0.15543652 C35.11218517 -0.17111411 39.81802105 -0.19239036 44.52392578 -0.22631836 C49.0626498 -0.25883745 53.60121748 -0.27683723 58.14004898 -0.28463173 C59.87447701 -0.29018868 61.60889617 -0.30103963 63.3432579 -0.31719017 C65.76662658 -0.33886587 68.18934347 -0.34197113 70.61279297 -0.34057617 C71.69604355 -0.35675491 71.69604355 -0.35675491 72.80117798 -0.3732605 C74.79830933 -0.36076355 74.79830933 -0.36076355 78 0 C80.29013653 3.4352048 80.17842973 4.985331 80 9 C78 6 78 6 77 3 C51.59 2.67 26.18 2.34 0 2 C0 1.34 0 0.68 0 0 Z " fill="#F5A65E" transform="translate(416,589)"/>
<path d="M0 0 C4.60813849 -0.04957858 9.21612037 -0.08580385 13.82446289 -0.10986328 C15.39089667 -0.11989726 16.95731183 -0.13352754 18.52368164 -0.15087891 C20.78015753 -0.17524225 23.03638494 -0.18650916 25.29296875 -0.1953125 C25.98899704 -0.20563507 26.68502533 -0.21595764 27.40214539 -0.22659302 C31.38584491 -0.22750439 34.41290109 0.2444173 38 2 C34.33701257 3.22099581 31.06979302 3.01998953 27.26953125 2.87890625 C26.51911057 2.85529526 25.76868988 2.83168427 24.99552917 2.80735779 C22.60098781 2.73084327 20.20677987 2.64676674 17.8125 2.5625 C16.1881673 2.50926706 14.56381838 2.45652674 12.93945312 2.40429688 C8.95942466 2.27524473 4.97967856 2.13941046 1 2 C0.67 1.34 0.34 0.68 0 0 Z " fill="#FA9839" transform="translate(79,444)"/>
<path d="M0 0 C1.72669922 0.00580078 1.72669922 0.00580078 3.48828125 0.01171875 C4.68582031 0.03621094 5.88335938 0.06070312 7.1171875 0.0859375 C8.92509766 0.08787109 8.92509766 0.08787109 10.76953125 0.08984375 C19.71141582 0.18016582 19.71141582 0.18016582 21.9921875 2.4609375 C18.5440297 3.24573327 15.40012481 3.57089487 11.8671875 3.5234375 C10.43632813 3.51183594 10.43632813 3.51183594 8.9765625 3.5 C5.9921875 3.4609375 5.9921875 3.4609375 3.0078125 3.421875 C1.57695313 3.41027344 1.57695313 3.41027344 0.1171875 3.3984375 C-0.74648437 3.38683594 -1.61015625 3.37523437 -2.5 3.36328125 C-5.09781904 3.46444243 -7.47638233 3.88478762 -10.0078125 4.4609375 C-6.83907266 0.61597124 -4.93734147 -0.03843755 0 0 Z " fill="#FA9636" transform="translate(1057.0078125,443.5390625)"/>
<path d="M0 0 C0.33 0 0.66 0 1 0 C1.59188036 3.01086966 2.03768521 5.92596319 2 9 C0.3125 10.9375 0.3125 10.9375 -2 13 C-3.16111176 15.58024836 -4.12554156 18.18902845 -5.0703125 20.85546875 C-6 23 -6 23 -8 24 C-5.69356492 15.86184696 -2.89571216 7.94317882 0 0 Z " fill="#F9993D" transform="translate(406,515)"/>
<path d="M0 0 C0.33 0 0.66 0 1 0 C1.21405263 4.49510531 0.60648509 7.80528893 -1 12 C-1.433125 13.2065625 -1.433125 13.2065625 -1.875 14.4375 C-3.34488368 17.78556839 -5.14606095 20.84830362 -7 24 C-8 22 -8 22 -7.37915039 19.75341797 C-7.03875732 18.84221191 -6.69836426 17.93100586 -6.34765625 16.9921875 C-5.80141602 15.51298828 -5.80141602 15.51298828 -5.24414062 14.00390625 C-4.85419922 12.97136719 -4.46425781 11.93882812 -4.0625 10.875 C-3.48338867 9.31458984 -3.48338867 9.31458984 -2.89257812 7.72265625 C-1.93513499 5.14583399 -0.97068496 2.57185712 0 0 Z " fill="#F99337" transform="translate(48,512)"/>
<path d="M0 0 C0.33 0 0.66 0 1 0 C1.33 2.97 1.66 5.94 2 9 C0.02 9.99 0.02 9.99 -2 11 C-1.125 3.375 -1.125 3.375 0 0 Z " fill="#FB8626" transform="translate(406,515)"/>
<path d="M0 0 C-0.33 0.99 -0.66 1.98 -1 3 C-1.99 3 -2.98 3 -4 3 C-4.28875 3.639375 -4.5775 4.27875 -4.875 4.9375 C-6 7 -6 7 -8 8 C-8.66 7.34 -9.32 6.68 -10 6 C-8.71283353 4.99421411 -7.42011342 3.99553202 -6.125 3 C-5.40570313 2.443125 -4.68640625 1.88625 -3.9453125 1.3125 C-2 0 -2 0 0 0 Z " fill="#F98A2A" transform="translate(233,452)"/>
<path d="M0 0 C1.485 0.99 1.485 0.99 3 2 C3.51171875 4.6015625 3.51171875 4.6015625 3.6875 7.625 C3.75324219 8.62789062 3.81898438 9.63078125 3.88671875 10.6640625 C3.92410156 11.43492187 3.96148437 12.20578125 4 13 C1.99706653 9.99559979 1.50728374 8.29006055 0.875 4.8125 C0.70742187 3.91144531 0.53984375 3.01039063 0.3671875 2.08203125 C0.24601563 1.39496094 0.12484375 0.70789063 0 0 Z " fill="#F89942" transform="translate(201,573)"/>
<path d="M0 0 C0.66 0.99 1.32 1.98 2 3 C0.625 4.5 0.625 4.5 -1 6 C-1.66 6 -2.32 6 -3 6 C-3 6.66 -3 7.32 -3 8 C-3.66 8 -4.32 8 -5 8 C-3.8141763 4.62496331 -2.72426311 2.35277269 0 0 Z " fill="#F88D2D" transform="translate(216,465)"/>
<path d="M0 0 C1.98 0.99 1.98 0.99 4 2 C4 5.63 4 9.26 4 13 C3.67 13 3.34 13 3 13 C2.67 10.03 2.34 7.06 2 4 C1.34 4 0.68 4 0 4 C0 2.68 0 1.36 0 0 Z " fill="#FC8218" transform="translate(1044,508)"/>
<path d="M0 0 C0.6875 1.6875 0.6875 1.6875 1 4 C-0.25 6.6875 -0.25 6.6875 -2 9 C-2.99 9.33 -3.98 9.66 -5 10 C-3.66511872 6.40608886 -2.03977277 3.24509304 0 0 Z " fill="#F99538" transform="translate(1218,472)"/>
<path d="M0 0 C0.75 1.625 0.75 1.625 1 4 C-0.8125 7.25 -0.8125 7.25 -3 10 C-3.66 10 -4.32 10 -5 10 C-3.66511872 6.40608886 -2.03977277 3.24509304 0 0 Z " fill="#F99536" transform="translate(1232,448)"/>
<path d="M0 0 C0.33 0 0.66 0 1 0 C1.25 3.3125 1.25 3.3125 1 7 C-0.32 7.99 -1.64 8.98 -3 10 C-2.01 6.7 -1.02 3.4 0 0 Z " fill="#FA9337" transform="translate(58,486)"/>
<path d="M0 0 C2.96052484 3.36423277 3.92289822 6.69159287 5 11 C1.87729874 8.48169253 1.05476902 7.2738451 0.25 3.25 C0.1675 2.1775 0.085 1.105 0 0 Z " fill="#F99438" transform="translate(476,447)"/>
<path d="M0 0 C0.33 0 0.66 0 1 0 C1.25 3.3125 1.25 3.3125 1 7 C-0.32 7.99 -1.64 8.98 -3 10 C-2.01 6.7 -1.02 3.4 0 0 Z " fill="#FA9338" transform="translate(39,537)"/>
<path d="M0 0 C0.6875 1.6875 0.6875 1.6875 1 4 C-0.3125 6.75 -0.3125 6.75 -2 9 C-2.66 9 -3.32 9 -4 9 C-2.94124926 5.59687262 -1.99097846 2.98646769 0 0 Z " fill="#F89639" transform="translate(1010,515)"/>
<path d="M0 0 C0.95904856 3.83619425 0.91892116 5.32431536 0 9 C-0.99 9.33 -1.98 9.66 -3 10 C-2.01 6.7 -1.02 3.4 0 0 Z " fill="#F8963D" transform="translate(428,456)"/>
<path d="M0 0 C0.33 0 0.66 0 1 0 C1.22036864 3.85645121 0.60355101 6.49223216 -1 10 C-1.66 10 -2.32 10 -3 10 C-2.01 6.7 -1.02 3.4 0 0 Z " fill="#F89538" transform="translate(372,607)"/>
<path d="M0 0 C0.93423645 3.01031744 1.04449911 3.86650268 0 7 C-2.0625 7.6875 -2.0625 7.6875 -4 8 C-2.66666667 5.33333333 -1.33333333 2.66666667 0 0 Z " fill="#FA9231" transform="translate(311,580)"/>
<path d="M0 0 C0.66 0.99 1.32 1.98 2 3 C1.01 4.485 1.01 4.485 0 6 C-0.66 6 -1.32 6 -2 6 C-2 6.99 -2 7.98 -2 9 C-2.66 9 -3.32 9 -4 9 C-2.80100302 5.9168649 -1.52299523 2.93720508 0 0 Z " fill="#F79439" transform="translate(1033,472)"/>
</svg>
